<?xml version="1.0" encoding="UTF-8" standalone="no"?>
<svg
   xmlns:dc="http://purl.org/dc/elements/1.1/"
   xmlns:cc="http://creativecommons.org/ns#"
   xmlns:rdf="http://www.w3.org/1999/02/22-rdf-syntax-ns#"
   xmlns:svg="http://www.w3.org/2000/svg"
   xmlns="http://www.w3.org/2000/svg"
   xmlns:sodipodi="http://sodipodi.sourceforge.net/DTD/sodipodi-0.dtd"
   xmlns:inkscape="http://www.inkscape.org/namespaces/inkscape"
   viewBox="0 0 512 512"
   width="345"
   height="512"
   version="1.1"
   id="svg3729"
   sodipodi:docname="pin2.svg"
   inkscape:version="0.92.4 (5da689c313, 2019-01-14)">
  <metadata
     id="metadata3735">
    <rdf:RDF>
      <cc:Work
         rdf:about="">
        <dc:format>image/svg+xml</dc:format>
        <dc:type
           rdf:resource="http://purl.org/dc/dcmitype/StillImage" />
        <dc:title></dc:title>
      </cc:Work>
    </rdf:RDF>
  </metadata>
  <defs
     id="defs3733" />
  <sodipodi:namedview
     pagecolor="#ffffff"
     bordercolor="#666666"
     borderopacity="1"
     objecttolerance="10"
     gridtolerance="10"
     guidetolerance="10"
     inkscape:pageopacity="0"
     inkscape:pageshadow="2"
     inkscape:window-width="1920"
     inkscape:window-height="1001"
     id="namedview3731"
     showgrid="false"
     inkscape:zoom="1.578125"
     inkscape:cx="205.62376"
     inkscape:cy="257.0248"
     inkscape:window-x="-9"
     inkscape:window-y="-9"
     inkscape:window-maximized="1"
     inkscape:current-layer="svg3729" />
  <path
     d="m 258.25775,-123.11268 c -141.81848,0 -257.2019777,113.3248484 -257.2019777,252.61303 0,41.81428 10.6442227,83.2733 30.8792467,120.04619 L 244.19255,626.58408 c 2.8257,5.02658 8.21034,8.14083 14.0652,8.14083 5.85486,0 11.2395,-3.11425 14.06522,-8.14083 L 484.65884,249.42222 c 20.15668,-36.64857 30.80089,-78.10909 30.80089,-119.92336 0,-139.2866916 -115.38349,-252.61154 -257.20198,-252.61154 z M 456.44857,234.26693 258.25775,586.31211 60.145301,234.40608 c -17.629355,-32.03936 -26.93834,-68.31786 -26.93834,-104.90573 0,-121.8816 100.956599,-221.035472 225.050789,-221.035472 124.09419,0 225.05079,99.1553531 225.05079,221.035472 0,36.58639 -9.30899,72.86637 -26.85997,104.76658 z"
     data-original="#000000"
     class="active-path"
     data-old_color="#f1cdb3"
     id="path3725"
     inkscape:connector-curvature="0"
     style="fill:#f1cdb3;stroke-width:1.49353528" />
  <path
     d="m 253.86391,10.735209 c -65.20041,0 -118.24676,51.358801 -118.24676,114.485011 0,63.12755 53.04635,114.48636 118.24676,114.48636 65.20041,0 118.24676,-51.35881 118.24676,-114.48502 0,-63.126208 -53.04635,-114.486351 -118.24676,-114.486351 z m 0,200.350461 c -48.90446,0 -88.68542,-38.51542 -88.68542,-85.86411 0,-47.348676 39.78096,-85.864095 88.68542,-85.864095 48.90447,0 88.68542,38.515419 88.68542,85.864095 0,47.34734 -39.78095,85.86411 -88.68542,85.86411 z"
     data-original="#000000"
     class="active-path"
     data-old_color="#f1cdb3"
     id="path3727"
     inkscape:connector-curvature="0"
     style="fill:#f1cdb3;stroke-width:1.36348999" />
</svg>
